<svg width="1116" height="525" viewBox="0 0 1116 525" fill="none" xmlns="http://www.w3.org/2000/svg">
<path d="M1 49.6823C24.1757 51.4189 62.9542 63.5758 112.243 58.0184C161.532 52.461 185.361 22.4857 237.588 23.0067C289.815 23.5277 310.706 57.9142 362.932 60.5192C415.159 63.1242 436.05 35.6845 488.277 35.5109C540.504 35.3372 561.395 61.4223 613.622 59.6856C665.849 57.9489 686.739 24.9171 738.966 27.1748C791.193 29.4325 812.084 69.1332 864.311 70.5225C916.538 71.9119 937.428 32.4543 989.655 33.8436C1041.88 35.233 1088.89 68.1606 1115 77.1914" stroke="#AF999E" stroke-width="2" stroke-linecap="round"/>
<path d="M1 476.491C24.1757 478.227 62.9542 490.384 112.243 484.827C161.532 479.269 185.361 449.294 237.588 449.815C289.815 450.336 310.706 484.723 362.932 487.328C415.159 489.933 436.05 462.493 488.277 462.319C540.504 462.146 561.395 488.231 613.622 486.494C665.849 484.757 686.739 451.726 738.966 453.983C791.193 456.241 812.084 495.942 864.311 497.331C916.538 498.72 937.428 459.263 989.655 460.652C1041.88 462.042 1088.89 494.969 1115 504" stroke="#AF999E" stroke-width="2" stroke-linecap="round"/>
<path d="M1 423.14C24.1757 424.877 62.9542 437.033 112.243 431.476C161.532 425.919 185.361 395.943 237.588 396.464C289.815 396.985 310.706 431.372 362.932 433.977C415.159 436.582 436.05 409.142 488.277 408.969C540.504 408.795 561.395 434.88 613.622 433.143C665.849 431.407 686.739 398.375 738.966 400.632C791.193 402.89 812.084 442.591 864.311 443.98C916.538 445.37 937.428 405.912 989.655 407.301C1041.88 408.691 1088.89 441.618 1115 450.649" stroke="#AF999E" stroke-width="2" stroke-linecap="round"/>
<path d="M1 369.789C24.1757 371.526 62.9542 383.682 112.243 378.125C161.532 372.568 185.361 342.592 237.588 343.113C289.815 343.634 310.706 378.021 362.932 380.626C415.159 383.231 436.05 355.791 488.277 355.617C540.504 355.444 561.395 381.529 613.622 379.792C665.849 378.055 686.739 345.024 738.966 347.281C791.193 349.539 812.084 389.24 864.311 390.629C916.538 392.018 937.428 352.561 989.655 353.95C1041.88 355.34 1088.89 388.267 1115 397.298" stroke="#AF999E" stroke-width="2" stroke-linecap="round"/>
<path d="M1 316.438C24.1757 318.174 62.9542 330.331 112.243 324.774C161.532 319.216 185.361 289.241 237.588 289.762C289.815 290.283 310.706 324.67 362.932 327.275C415.159 329.88 436.05 302.44 488.277 302.266C540.504 302.093 561.395 328.178 613.622 326.441C665.849 324.704 686.739 291.673 738.966 293.93C791.193 296.188 812.084 335.889 864.311 337.278C916.538 338.667 937.428 299.21 989.655 300.599C1041.88 301.988 1088.89 334.916 1115 343.947" stroke="#AF999E" stroke-width="2" stroke-linecap="round"/>
<path d="M1 263.087C24.1757 264.823 62.9542 276.98 112.243 271.423C161.532 265.865 185.361 235.89 237.588 236.411C289.815 236.932 310.706 271.318 362.932 273.923C415.159 276.529 436.05 249.089 488.277 248.915C540.504 248.741 561.395 274.827 613.622 273.09C665.849 271.353 686.739 238.321 738.966 240.579C791.193 242.837 812.084 282.537 864.311 283.927C916.538 285.316 937.428 245.859 989.655 247.248C1041.88 248.637 1088.89 281.565 1115 290.596" stroke="#AF999E" stroke-width="2" stroke-linecap="round"/>
<path d="M1 209.735C24.1757 211.472 62.9542 223.629 112.243 218.072C161.532 212.514 185.361 182.539 237.588 183.06C289.815 183.581 310.706 217.967 362.932 220.572C415.159 223.177 436.05 195.738 488.277 195.564C540.504 195.39 561.395 221.475 613.622 219.739C665.849 218.002 686.739 184.97 738.966 187.228C791.193 189.486 812.084 229.186 864.311 230.576C916.538 231.965 937.428 192.508 989.655 193.897C1041.88 195.286 1088.89 228.214 1115 237.245" stroke="#AF999E" stroke-width="2" stroke-linecap="round"/>
<path d="M1 156.385C24.1757 158.121 62.9542 170.278 112.243 164.721C161.532 159.163 185.361 129.188 237.588 129.709C289.815 130.23 310.706 164.616 362.932 167.221C415.159 169.826 436.05 142.387 488.277 142.213C540.504 142.039 561.395 168.125 613.622 166.388C665.849 164.651 686.739 131.619 738.966 133.877C791.193 136.135 812.084 175.835 864.311 177.225C916.538 178.614 937.428 139.157 989.655 140.546C1041.88 141.935 1088.89 174.863 1115 183.894" stroke="#AF999E" stroke-width="2" stroke-linecap="round"/>
<path d="M1 103.033C24.1757 104.77 62.9542 116.927 112.243 111.37C161.532 105.812 185.361 75.8369 237.588 76.3579C289.815 76.8789 310.706 111.265 362.932 113.87C415.159 116.475 436.05 89.0357 488.277 88.8621C540.504 88.6884 561.395 114.773 613.622 113.037C665.849 111.3 686.739 78.2683 738.966 80.526C791.193 82.7837 812.084 122.484 864.311 123.874C916.538 125.263 937.428 85.8055 989.655 87.1948C1041.88 88.5842 1088.89 121.512 1115 130.543" stroke="#AF999E" stroke-width="2" stroke-linecap="round"/>
</svg>
