<svg class="header__background opacity-0" viewBox="0 0 1378 602" fill="none" xmlns="http://www.w3.org/2000/svg">
<path d="M1 102.553C28.8167 112.772 78.212 102.072 139.148 95.7615C200.084 89.4513 229.543 55.416 294.111 56.0076C358.679 56.5992 384.507 95.6432 449.075 98.601C513.643 101.559 539.47 70.4026 604.038 70.2054C668.606 70.0082 694.433 99.6264 759.001 97.6545C823.569 95.6826 849.396 58.1767 913.965 60.7402C978.533 63.3037 1004.36 108.382 1068.93 109.959C1133.5 111.537 1159.32 66.7349 1223.89 68.3124C1315.19 74.1671 1344.72 92.2993 1377 102.553" stroke="#FFEDF0" stroke-width="2" stroke-linecap="round"/>
<path d="M1 48.4154C28.8167 58.8237 78.212 47.9248 139.148 41.4978C200.084 35.0708 229.543 0.40523 294.111 1.00776C358.679 1.61029 384.507 41.3773 449.075 44.3899C513.643 47.4026 539.47 15.6693 604.038 15.4685C668.606 15.2676 694.433 45.4343 759.001 43.4259C823.569 41.4175 849.396 3.21704 913.965 5.828C978.533 8.43897 1004.36 54.3518 1068.93 55.9585C1133.5 57.5653 1159.32 11.9336 1223.89 13.5404C1315.19 19.5036 1344.72 37.9716 1377 48.4154" stroke="#FFEDF0" stroke-width="2" stroke-linecap="round"/>
<path d="M1 157.415C28.8167 167.824 78.212 156.925 139.148 150.498C200.084 144.071 229.543 109.405 294.111 110.008C358.679 110.61 384.507 150.377 449.075 153.39C513.643 156.403 539.47 124.669 604.038 124.468C668.606 124.268 694.433 154.434 759.001 152.426C823.569 150.417 849.396 112.217 913.965 114.828C978.533 117.439 1004.36 163.352 1068.93 164.959C1133.5 166.565 1159.32 120.934 1223.89 122.54C1315.19 128.504 1344.72 146.972 1377 157.415" stroke="#FFEDF0" stroke-width="2" stroke-linecap="round"/>
<path d="M1 211.553C28.8167 221.772 78.212 211.072 139.148 204.761C200.084 198.451 229.543 164.416 294.111 165.008C358.679 165.599 384.507 204.643 449.075 207.601C513.643 210.559 539.47 179.403 604.038 179.205C668.606 179.008 694.433 208.626 759.001 206.655C823.569 204.683 849.396 167.177 913.965 169.74C978.533 172.304 1004.36 217.382 1068.93 218.959C1133.5 220.537 1159.32 175.735 1223.89 177.312C1315.19 183.167 1344.72 201.299 1377 211.553" stroke="#FFEDF0" stroke-width="2" stroke-linecap="round"/>
<path d="M1 266.415C28.8167 276.824 78.212 265.925 139.148 259.498C200.084 253.071 229.543 218.405 294.111 219.008C358.679 219.61 384.507 259.377 449.075 262.39C513.643 265.403 539.47 233.669 604.038 233.468C668.606 233.268 694.433 263.434 759.001 261.426C823.569 259.417 849.396 221.217 913.965 223.828C978.533 226.439 1004.36 272.352 1068.93 273.959C1133.5 275.565 1159.32 229.934 1223.89 231.54C1315.19 237.504 1344.72 255.972 1377 266.415" stroke="#FFEDF0" stroke-width="2" stroke-linecap="round"/>
<path d="M1 320.553C28.8167 330.772 78.212 320.072 139.148 313.761C200.084 307.451 229.543 273.416 294.111 274.008C358.679 274.599 384.507 313.643 449.075 316.601C513.643 319.559 539.47 288.403 604.038 288.205C668.606 288.008 694.433 317.626 759.001 315.655C823.569 313.683 849.396 276.177 913.965 278.74C978.533 281.304 1004.36 326.382 1068.93 327.959C1133.5 329.537 1159.32 284.735 1223.89 286.312C1315.19 292.167 1344.72 310.299 1377 320.553" stroke="#FFEDF0" stroke-width="2" stroke-linecap="round"/>
<path d="M1 375.415C28.8167 385.824 78.212 374.925 139.148 368.498C200.084 362.071 229.543 327.405 294.111 328.008C358.679 328.61 384.507 368.377 449.075 371.39C513.643 374.403 539.47 342.669 604.038 342.468C668.606 342.268 694.433 372.434 759.001 370.426C823.569 368.417 849.396 330.217 913.965 332.828C978.533 335.439 1004.36 381.352 1068.93 382.959C1133.5 384.565 1159.32 338.934 1223.89 340.54C1315.19 346.504 1344.72 364.972 1377 375.415" stroke="#FFEDF0" stroke-width="2" stroke-linecap="round"/>
<path d="M1 429.553C28.8167 439.772 78.212 429.072 139.148 422.761C200.084 416.451 229.543 382.416 294.111 383.008C358.679 383.599 384.507 422.643 449.075 425.601C513.643 428.559 539.47 397.403 604.038 397.205C668.606 397.008 694.433 426.626 759.001 424.655C823.569 422.683 849.396 385.177 913.965 387.74C978.533 390.304 1004.36 435.382 1068.93 436.959C1133.5 438.537 1159.32 393.735 1223.89 395.312C1315.19 401.167 1344.72 419.299 1377 429.553" stroke="#FFEDF0" stroke-width="2" stroke-linecap="round"/>
<path d="M1 484.415C28.8167 494.824 78.212 483.925 139.148 477.498C200.084 471.071 229.543 436.405 294.111 437.008C358.679 437.61 384.507 477.377 449.075 480.39C513.643 483.403 539.47 451.669 604.038 451.468C668.606 451.268 694.433 481.434 759.001 479.426C823.569 477.417 849.396 439.217 913.965 441.828C978.533 444.439 1004.36 490.352 1068.93 491.959C1133.5 493.565 1159.32 447.934 1223.89 449.54C1315.19 455.504 1344.72 473.972 1377 484.415" stroke="#FFEDF0" stroke-width="2" stroke-linecap="round"/>
<path d="M1 538.553C28.8167 548.772 78.212 538.072 139.148 531.761C200.084 525.451 229.543 491.416 294.111 492.008C358.679 492.599 384.507 531.643 449.075 534.601C513.643 537.559 539.47 506.403 604.038 506.205C668.606 506.008 694.433 535.626 759.001 533.655C823.569 531.683 849.396 494.177 913.965 496.74C978.533 499.304 1004.36 544.382 1068.93 545.959C1133.5 547.537 1159.32 502.735 1223.89 504.312C1315.19 510.167 1344.72 528.299 1377 538.553" stroke="#FFEDF0" stroke-width="2" stroke-linecap="round"/>
<path d="M1 593.416C28.8167 603.824 75.1113 598.708 130.695 590.115C202.953 576.938 229.543 545.406 294.111 546.009C358.679 546.611 384.507 586.377 449.075 589.39C513.643 592.403 539.47 560.67 604.038 560.469C668.606 560.268 694.433 590.434 759.001 588.426C823.569 586.418 849.396 548.218 913.964 550.829C978.533 553.44 1004.36 599.352 1068.93 600.959C1133.5 602.565 1159.32 556.934 1223.89 558.541C1315.19 564.504 1344.72 582.972 1377 593.416" stroke="#FFEDF0" stroke-width="2" stroke-linecap="round"/>
</svg>
