<svg viewBox="0 0 1140 514" fill="none" xmlns="http://www.w3.org/2000/svg">
<path d="M1 87.6722C23.51 96.4806 63.482 87.257 112.793 81.818C162.104 76.379 185.943 47.0421 238.193 47.552C290.444 48.0619 311.344 81.716 363.594 84.2656C415.844 86.8151 436.744 59.9598 488.994 59.7899C541.244 59.6199 562.145 85.1494 614.395 83.4497C666.645 81.75 687.545 49.4217 739.795 51.6313C792.045 53.8409 812.945 92.6961 865.196 94.0558C917.446 95.4156 938.346 56.7984 990.596 58.1582C1064.47 63.2047 1088.37 78.8338 1114.5 87.6722" stroke="#FFEDF0" stroke-width="2" stroke-linecap="round"/>
<path d="M1 41.1268C23.51 49.9351 63.482 40.7116 112.793 35.2725C162.104 29.8335 185.943 0.496657 238.193 1.00657C290.444 1.51648 311.344 35.1705 363.594 37.7201C415.844 40.2696 436.744 13.4144 488.994 13.2444C541.244 13.0744 562.145 38.6039 614.395 36.9042C666.645 35.2045 687.545 2.87624 739.795 5.08585C792.045 7.29546 812.945 46.1506 865.196 47.5104C917.446 48.8701 938.346 10.2529 990.596 11.6127C1064.47 16.6592 1088.37 32.2883 1114.5 41.1268" stroke="#FFEDF0" stroke-width="2" stroke-linecap="round"/>
<path d="M1 134.218C23.51 143.026 63.482 133.803 112.793 128.363C162.104 122.924 185.943 93.5876 238.193 94.0975C290.444 94.6074 311.344 128.261 363.594 130.811C415.844 133.361 436.744 106.505 488.994 106.335C541.244 106.165 562.145 131.695 614.395 129.995C666.645 128.295 687.545 95.9672 739.795 98.1768C792.045 100.386 812.945 139.242 865.196 140.601C917.446 141.961 938.346 103.344 990.596 104.704C1064.47 109.75 1088.37 125.379 1114.5 134.218" stroke="#FFEDF0" stroke-width="2" stroke-linecap="round"/>
<path d="M1 180.763C23.51 189.571 63.482 180.348 112.793 174.909C162.104 169.47 185.943 140.133 238.193 140.643C290.444 141.153 311.344 174.807 363.594 177.356C415.844 179.906 436.744 153.051 488.994 152.881C541.244 152.711 562.145 178.24 614.395 176.541C666.645 174.841 687.545 142.513 739.795 144.722C792.045 146.932 812.945 185.787 865.196 187.147C917.446 188.506 938.346 149.889 990.596 151.249C1064.47 156.296 1088.37 171.925 1114.5 180.763" stroke="#FFEDF0" stroke-width="2" stroke-linecap="round"/>
<path d="M1 227.309C23.51 236.117 63.482 226.893 112.793 221.454C162.104 216.015 185.943 186.678 238.193 187.188C290.444 187.698 311.344 221.352 363.594 223.902C415.844 226.451 436.744 199.596 488.994 199.426C541.244 199.256 562.145 224.786 614.395 223.086C666.645 221.386 687.545 189.058 739.795 191.268C792.045 193.477 812.945 232.332 865.196 233.692C917.446 235.052 938.346 196.435 990.596 197.795C1064.47 202.841 1088.37 218.47 1114.5 227.309" stroke="#FFEDF0" stroke-width="2" stroke-linecap="round"/>
<path d="M1 273.854C23.51 282.662 63.482 273.439 112.793 268C162.104 262.561 185.943 233.224 238.193 233.734C290.444 234.244 311.344 267.898 363.594 270.447C415.844 272.997 436.744 246.142 488.994 245.972C541.244 245.802 562.145 271.331 614.395 269.632C666.645 267.932 687.545 235.604 739.795 237.813C792.045 240.023 812.945 278.878 865.196 280.238C917.446 281.597 938.346 242.98 990.596 244.34C1064.47 249.387 1088.37 265.016 1114.5 273.854" stroke="#FFEDF0" stroke-width="2" stroke-linecap="round"/>
<path d="M1 320.399C23.51 329.208 63.482 319.984 112.793 314.545C162.104 309.106 185.943 279.769 238.193 280.279C290.444 280.789 311.344 314.443 363.594 316.993C415.844 319.542 436.744 292.687 488.994 292.517C541.244 292.347 562.145 317.877 614.395 316.177C666.645 314.477 687.545 282.149 739.795 284.359C792.045 286.568 812.945 325.423 865.196 326.783C917.446 328.143 938.346 289.526 990.596 290.885C1064.47 295.932 1088.37 311.561 1114.5 320.399" stroke="#FFEDF0" stroke-width="2" stroke-linecap="round"/>
<path d="M1 366.945C23.51 375.753 63.482 366.53 112.793 361.091C162.104 355.652 185.943 326.315 238.193 326.825C290.444 327.335 311.344 360.989 363.594 363.538C415.844 366.088 436.744 339.233 488.994 339.063C541.244 338.893 562.145 364.422 614.395 362.722C666.645 361.023 687.545 328.694 739.795 330.904C792.045 333.114 812.945 371.969 865.196 373.329C917.446 374.688 938.346 336.071 990.596 337.431C1064.47 342.477 1088.37 358.107 1114.5 366.945" stroke="#FFEDF0" stroke-width="2" stroke-linecap="round"/>
<path d="M1 413.49C23.51 422.299 63.482 413.075 112.793 407.636C162.104 402.197 185.943 372.86 238.193 373.37C290.444 373.88 311.344 407.534 363.594 410.084C415.844 412.633 436.744 385.778 488.994 385.608C541.244 385.438 562.145 410.968 614.395 409.268C666.645 407.568 687.545 375.24 739.795 377.449C792.045 379.659 812.945 418.514 865.196 419.874C917.446 421.234 938.346 382.617 990.596 383.976C1064.47 389.023 1088.37 404.652 1114.5 413.49" stroke="#FFEDF0" stroke-width="2" stroke-linecap="round"/>
<path d="M1 460.036C23.51 468.844 63.482 459.621 112.793 454.182C162.104 448.743 185.943 419.406 238.193 419.916C290.444 420.426 311.344 454.08 363.594 456.629C415.844 459.179 436.744 432.323 488.994 432.153C541.244 431.983 562.145 457.513 614.395 455.813C666.645 454.114 687.545 421.785 739.795 423.995C792.045 426.205 812.945 465.06 865.196 466.419C917.446 467.779 938.346 429.162 990.596 430.522C1064.47 435.568 1088.37 451.197 1114.5 460.036" stroke="#FFEDF0" stroke-width="2" stroke-linecap="round"/>
<path d="M24.9883 506.581C47.4983 515.39 84.9611 511.061 129.941 503.788C188.414 492.636 209.932 465.951 262.182 466.461C314.432 466.971 335.332 500.625 387.582 503.175C439.832 505.724 460.732 478.869 512.983 478.699C565.233 478.529 586.133 504.058 638.383 502.359C690.633 500.659 711.533 468.331 763.783 470.54C816.034 472.75 836.934 511.605 889.184 512.965C941.434 514.325 962.334 475.707 1014.58 477.067C1088.46 482.114 1112.36 497.743 1138.48 506.581" stroke="#FFEDF0" stroke-width="2" stroke-linecap="round"/>
</svg>
