<svg class="header__background opacity-0" viewBox="0 0 1116 602" fill="none" xmlns="http://www.w3.org/2000/svg">
<path d="M1 102.919C23.5202 113.228 63.5103 102.433 112.844 96.0667C162.177 89.7008 186.027 55.3647 238.301 55.9615C290.575 56.5583 311.484 95.9474 363.758 98.9314C416.032 101.915 436.941 70.4837 489.215 70.2848C541.489 70.0858 562.399 99.9658 614.673 97.9765C666.946 95.9871 687.856 58.1498 740.13 60.7359C792.404 63.3221 813.313 108.799 865.587 110.39C917.861 111.981 938.77 66.7835 991.044 68.375C1064.96 74.2815 1088.86 92.574 1115 102.919" stroke="#FFEDF0" stroke-width="2" stroke-linecap="round"/>
<path d="M1 48.4413C23.5202 58.7507 63.5103 47.9554 112.844 41.5895C162.177 35.2236 186.027 0.887445 238.301 1.48425C290.575 2.08105 311.484 41.4701 363.758 44.4541C416.032 47.4382 436.941 16.0065 489.215 15.8075C541.489 15.6086 562.399 45.4886 614.673 43.4993C666.946 41.5099 687.856 3.67253 740.13 6.25868C792.404 8.84483 813.313 54.3213 865.587 55.9128C917.861 57.5043 938.77 12.3063 991.044 13.8978C1064.96 19.8043 1088.86 38.0967 1115 48.4413" stroke="#FFEDF0" stroke-width="2" stroke-linecap="round"/>
<path d="M1 157.396C23.5202 167.705 63.5103 156.91 112.844 150.544C162.177 144.178 186.027 109.842 238.301 110.439C290.575 111.036 311.484 150.425 363.758 153.409C416.032 156.393 436.941 124.961 489.215 124.762C541.489 124.563 562.399 154.443 614.673 152.454C666.946 150.464 687.856 112.627 740.13 115.213C792.404 117.799 813.313 163.276 865.587 164.867C917.861 166.459 938.77 121.261 991.044 122.852C1064.96 128.759 1088.86 147.051 1115 157.396" stroke="#FFEDF0" stroke-width="2" stroke-linecap="round"/>
<path d="M1 211.873C23.5202 222.182 63.5103 211.387 112.844 205.021C162.177 198.655 186.027 164.319 238.301 164.916C290.575 165.513 311.484 204.902 363.758 207.886C416.032 210.87 436.941 179.438 489.215 179.239C541.489 179.04 562.399 208.92 614.673 206.931C666.946 204.942 687.856 167.104 740.13 169.69C792.404 172.277 813.313 217.753 865.587 219.345C917.861 220.936 938.77 175.738 991.044 177.33C1064.96 183.236 1088.86 201.529 1115 211.873" stroke="#FFEDF0" stroke-width="2" stroke-linecap="round"/>
<path d="M1 266.351C23.5202 276.66 63.5103 265.865 112.844 259.499C162.177 253.133 186.027 218.797 238.301 219.393C290.575 219.99 311.484 259.379 363.758 262.363C416.032 265.347 436.941 233.916 489.215 233.717C541.489 233.518 562.399 263.398 614.673 261.408C666.946 259.419 687.856 221.582 740.13 224.168C792.404 226.754 813.313 272.23 865.587 273.822C917.861 275.413 938.77 230.215 991.044 231.807C1064.96 237.713 1088.86 256.006 1115 266.351" stroke="#FFEDF0" stroke-width="2" stroke-linecap="round"/>
<path d="M1 320.828C23.5202 331.137 63.5103 320.342 112.844 313.976C162.177 307.61 186.027 273.274 238.301 273.871C290.575 274.468 311.484 313.857 363.758 316.841C416.032 319.825 436.941 288.393 489.215 288.194C541.489 287.995 562.399 317.875 614.673 315.886C666.946 313.896 687.856 276.059 740.13 278.645C792.404 281.231 813.313 326.708 865.587 328.299C917.861 329.891 938.77 284.693 991.044 286.284C1064.96 292.191 1088.86 310.483 1115 320.828" stroke="#FFEDF0" stroke-width="2" stroke-linecap="round"/>
<path d="M1 375.305C23.5202 385.614 63.5103 374.819 112.844 368.453C162.177 362.087 186.027 327.751 238.301 328.348C290.575 328.945 311.484 368.334 363.758 371.318C416.032 374.302 436.941 342.87 489.215 342.671C541.489 342.472 562.399 372.352 614.673 370.363C666.946 368.373 687.856 330.536 740.13 333.122C792.404 335.708 813.313 381.185 865.587 382.776C917.861 384.368 938.77 339.17 991.044 340.761C1064.96 346.668 1088.86 364.96 1115 375.305" stroke="#FFEDF0" stroke-width="2" stroke-linecap="round"/>
<path d="M1 429.782C23.5202 440.092 63.5103 429.296 112.844 422.93C162.177 416.564 186.027 382.228 238.301 382.825C290.575 383.422 311.484 422.811 363.758 425.795C416.032 428.779 436.941 397.347 489.215 397.148C541.489 396.949 562.399 426.829 614.673 424.84C666.946 422.851 687.856 385.013 740.13 387.6C792.404 390.186 813.313 435.662 865.587 437.254C917.861 438.845 938.77 393.647 991.044 395.239C1064.96 401.145 1088.86 419.438 1115 429.782" stroke="#FFEDF0" stroke-width="2" stroke-linecap="round"/>
<path d="M1 484.26C23.5202 494.569 63.5103 483.774 112.844 477.408C162.177 471.042 186.027 436.706 238.301 437.303C290.575 437.899 311.484 477.288 363.758 480.272C416.032 483.256 436.941 451.825 489.215 451.626C541.489 451.427 562.399 481.307 614.673 479.318C666.946 477.328 687.856 439.491 740.13 442.077C792.404 444.663 813.313 490.14 865.587 491.731C917.861 493.323 938.77 448.125 991.044 449.716C1064.96 455.623 1088.86 473.915 1115 484.26" stroke="#FFEDF0" stroke-width="2" stroke-linecap="round"/>
<path d="M1 538.737C23.5202 549.046 63.5103 538.251 112.844 531.885C162.177 525.519 186.027 491.183 238.301 491.78C290.575 492.377 311.484 531.766 363.758 534.75C416.032 537.734 436.941 506.302 489.215 506.103C541.489 505.904 562.399 535.784 614.673 533.795C666.946 531.805 687.856 493.968 740.13 496.554C792.404 499.14 813.313 544.617 865.587 546.208C917.861 547.8 938.77 502.602 991.044 504.193C1064.96 510.1 1088.86 528.392 1115 538.737" stroke="#FFEDF0" stroke-width="2" stroke-linecap="round"/>
<path d="M1 593.214C23.5202 603.523 61 598.457 106 589.945C164.5 576.893 186.027 545.66 238.301 546.257C290.575 546.854 311.484 586.243 363.758 589.227C416.032 592.211 436.941 560.779 489.215 560.58C541.489 560.381 562.399 590.261 614.673 588.272C666.946 586.283 687.856 548.445 740.13 551.031C792.404 553.617 813.313 599.094 865.587 600.685C917.861 602.277 938.77 557.079 991.044 558.67C1064.96 564.577 1088.86 582.869 1115 593.214" stroke="#FFEDF0" stroke-width="2" stroke-linecap="round"/>
</svg>
