<svg width="1116" height="434" viewBox="0 0 1116 434" fill="none" xmlns="http://www.w3.org/2000/svg">
<path d="M1 42.3807C23.5202 51.4643 63.5103 41.9525 112.844 36.3435C162.177 30.7345 186.027 0.480928 238.301 1.00677C290.575 1.53262 311.484 36.2384 363.758 38.8676C416.032 41.4968 436.941 13.8023 489.215 13.627C541.489 13.4518 562.399 39.7791 614.673 38.0262C666.946 36.2734 687.856 2.93487 740.13 5.21353C792.404 7.49219 813.313 47.5616 865.587 48.9638C917.861 50.3661 938.77 10.5421 991.044 11.9443C1064.96 17.1486 1088.86 33.2661 1115 42.3807" stroke="#FFEDF0" stroke-width="2" stroke-linecap="round"/>
<path d="M1 90.3807C23.5202 99.4643 63.5103 89.9525 112.844 84.3435C162.177 78.7345 186.027 48.4809 238.301 49.0068C290.575 49.5326 311.484 84.2384 363.758 86.8676C416.032 89.4968 436.941 61.8023 489.215 61.627C541.489 61.4518 562.399 87.7791 614.673 86.0262C666.946 84.2734 687.856 50.9349 740.13 53.2135C792.404 55.4922 813.313 95.5616 865.587 96.9638C917.861 98.3661 938.77 58.5421 991.044 59.9443C1064.96 65.1486 1088.86 81.2661 1115 90.3807" stroke="#FFEDF0" stroke-width="2" stroke-linecap="round"/>
<path d="M1 138.381C23.5202 147.464 63.5103 137.953 112.844 132.344C162.177 126.735 186.027 96.4809 238.301 97.0068C290.575 97.5326 311.484 132.238 363.758 134.868C416.032 137.497 436.941 109.802 489.215 109.627C541.489 109.452 562.399 135.779 614.673 134.026C666.946 132.273 687.856 98.9349 740.13 101.214C792.404 103.492 813.313 143.562 865.587 144.964C917.861 146.366 938.77 106.542 991.044 107.944C1064.96 113.149 1088.86 129.266 1115 138.381" stroke="#FFEDF0" stroke-width="2" stroke-linecap="round"/>
<path d="M1 186.381C23.5202 195.464 63.5103 185.953 112.844 180.344C162.177 174.735 186.027 144.481 238.301 145.007C290.575 145.533 311.484 180.238 363.758 182.868C416.032 185.497 436.941 157.802 489.215 157.627C541.489 157.452 562.399 183.779 614.673 182.026C666.946 180.273 687.856 146.935 740.13 149.214C792.404 151.492 813.313 191.562 865.587 192.964C917.861 194.366 938.77 154.542 991.044 155.944C1064.96 161.149 1088.86 177.266 1115 186.381" stroke="#FFEDF0" stroke-width="2" stroke-linecap="round"/>
<path d="M1 234.381C23.5202 243.464 63.5103 233.953 112.844 228.344C162.177 222.735 186.027 192.481 238.301 193.007C290.575 193.533 311.484 228.238 363.758 230.868C416.032 233.497 436.941 205.802 489.215 205.627C541.489 205.452 562.399 231.779 614.673 230.026C666.946 228.273 687.856 194.935 740.13 197.214C792.404 199.492 813.313 239.562 865.587 240.964C917.861 242.366 938.77 202.542 991.044 203.944C1064.96 209.149 1088.86 225.266 1115 234.381" stroke="#FFEDF0" stroke-width="2" stroke-linecap="round"/>
<path d="M1 282.381C23.5202 291.464 63.5103 281.953 112.844 276.344C162.177 270.735 186.027 240.481 238.301 241.007C290.575 241.533 311.484 276.238 363.758 278.868C416.032 281.497 436.941 253.802 489.215 253.627C541.489 253.452 562.399 279.779 614.673 278.026C666.946 276.273 687.856 242.935 740.13 245.214C792.404 247.492 813.313 287.562 865.587 288.964C917.861 290.366 938.77 250.542 991.044 251.944C1064.96 257.149 1088.86 273.266 1115 282.381" stroke="#FFEDF0" stroke-width="2" stroke-linecap="round"/>
<path d="M1 330.381C23.5202 339.464 63.5103 329.953 112.844 324.344C162.177 318.735 186.027 288.481 238.301 289.007C290.575 289.533 311.484 324.238 363.758 326.868C416.032 329.497 436.941 301.802 489.215 301.627C541.489 301.452 562.399 327.779 614.673 326.026C666.946 324.273 687.856 290.935 740.13 293.214C792.404 295.492 813.313 335.562 865.587 336.964C917.861 338.366 938.77 298.542 991.044 299.944C1064.96 305.149 1088.86 321.266 1115 330.381" stroke="#FFEDF0" stroke-width="2" stroke-linecap="round"/>
<path d="M1 378.381C23.5202 387.464 63.5103 377.953 112.844 372.344C162.177 366.735 186.027 336.481 238.301 337.007C290.575 337.533 311.484 372.238 363.758 374.868C416.032 377.497 436.941 349.802 489.215 349.627C541.489 349.452 562.399 375.779 614.673 374.026C666.946 372.273 687.856 338.935 740.13 341.214C792.404 343.492 813.313 383.562 865.587 384.964C917.861 386.366 938.77 346.542 991.044 347.944C1064.96 353.149 1088.86 369.266 1115 378.381" stroke="#FFEDF0" stroke-width="2" stroke-linecap="round"/>
<path d="M1 426.381C23.5202 435.464 63.5103 425.953 112.844 420.344C162.177 414.735 186.027 384.481 238.301 385.007C290.575 385.533 311.484 420.238 363.758 422.868C416.032 425.497 436.941 397.802 489.215 397.627C541.489 397.452 562.399 423.779 614.673 422.026C666.946 420.273 687.856 386.935 740.13 389.214C792.404 391.492 813.313 431.562 865.587 432.964C917.861 434.366 938.77 394.542 991.044 395.944C1064.96 401.149 1088.86 417.266 1115 426.381" stroke="#FFEDF0" stroke-width="2" stroke-linecap="round"/>
</svg>
