<svg width="16" height="17" viewBox="0 0 16 17" fill="none" xmlns="http://www.w3.org/2000/svg">
<path d="M10.9052 16.0015V12.9539C11.0112 11.9995 10.7375 11.0417 10.1433 10.2873C12.429 10.2873 14.7146 8.76352 14.7146 6.0969C14.7756 5.14454 14.5089 4.20742 13.9528 3.43029C14.1661 2.55411 14.1661 1.63985 13.9528 0.763672C13.9528 0.763672 13.1909 0.763672 11.6671 1.90651C9.65569 1.52556 7.58335 1.52556 5.57196 1.90651C4.04818 0.763672 3.28629 0.763672 3.28629 0.763672C3.05772 1.63985 3.05772 2.55411 3.28629 3.43029C2.73153 4.20428 2.46228 5.14666 2.5244 6.0969C2.5244 8.76352 4.81007 10.2873 7.09574 10.2873C6.7986 10.6606 6.57765 11.0873 6.44813 11.5444C6.31861 12.0016 6.28052 12.4815 6.33385 12.9539V16.0015" stroke="#FFDCE2" stroke-linecap="round" stroke-linejoin="round"/>
<path d="M6.33323 12.9544C2.89711 14.4782 2.52378 11.4307 1 11.4307" stroke="#FFDCE2" stroke-linecap="round" stroke-linejoin="round"/>
</svg>
