<svg width="17" height="16" viewBox="0 0 17 16" fill="none" xmlns="http://www.w3.org/2000/svg">
<path d="M11.6651 5.57227C12.8775 5.57227 14.0402 6.05389 14.8975 6.91118C15.7548 7.76847 16.2364 8.93121 16.2364 10.1436V15.4768H13.1889V10.1436C13.1889 9.73948 13.0283 9.3519 12.7426 9.06613C12.4568 8.78037 12.0692 8.61983 11.6651 8.61983C11.261 8.61983 10.8734 8.78037 10.5876 9.06613C10.3019 9.3519 10.1413 9.73948 10.1413 10.1436V15.4768H7.09375V10.1436C7.09375 8.93121 7.57537 7.76847 8.43267 6.91118C9.28996 6.05389 10.4527 5.57227 11.6651 5.57227Z" stroke="#FFDCE2" stroke-linecap="round" stroke-linejoin="round"/>
<path d="M4.04756 6.33496H1V15.4776H4.04756V6.33496Z" stroke="#FFDCE2" stroke-linecap="round" stroke-linejoin="round"/>
<path d="M2.52378 4.04951C3.36534 4.04951 4.04756 3.36729 4.04756 2.52573C4.04756 1.68417 3.36534 1.00195 2.52378 1.00195C1.68222 1.00195 1 1.68417 1 2.52573C1 3.36729 1.68222 4.04951 2.52378 4.04951Z" stroke="#FFDCE2" stroke-linecap="round" stroke-linejoin="round"/>
</svg>
